<svg width="24" height="24" viewBox="0 0 24 24" fill="none" xmlns="http://www.w3.org/2000/svg">
<path d="M12 2C17.5228 2 22 6.47715 22 12C22 17.5228 17.5228 22 12 22C6.47715 22 2 17.5228 2 12C2 6.47715 6.47715 2 12 2ZM16 6C16 7.10457 15.1046 8 14 8H13V10C13 10.5523 12.5523 11 12 11H11V12.6973C11 13.4167 10.4167 14 9.69727 14C9.2617 14 8.85491 13.7823 8.61328 13.4199L7 11H6V12C6 13.0205 5.23543 13.8601 4.24805 13.9824C5.13005 17.4417 8.26604 20 12 20C12.1647 20 12.328 19.9922 12.4902 19.9824C12.1829 19.568 12 19.056 12 18.5C12 17.1193 13.1193 16 14.5 16H15.5C15.5 14.8954 16.3954 14 17.5 14H19.748C19.9126 13.3608 20 12.6906 20 12C20 9.03923 18.3907 6.45563 16 5.07227V6ZM17.9141 10.75L15.5 13.1641L14.0859 11.75L16.5 9.33594L17.9141 10.75Z" fill="#5ABE86"/>
</svg>
