<svg width="31" height="31" viewBox="0 0 31 31" fill="none" xmlns="http://www.w3.org/2000/svg">
<g clip-path="url(#clip0_1261_15852)">
<path d="M28.6454 12.5888C28.3271 12.6424 28.1126 12.9439 28.1663 13.2622C28.2902 14.0026 28.3527 14.7519 28.3532 15.5027C28.3553 19.0556 26.9457 22.4638 24.4346 24.9773C22.9832 22.5508 20.6564 20.7734 17.9336 20.0114C22.3015 17.6885 22.5168 11.5084 18.3212 8.88721C14.1256 6.26601 8.66583 9.16961 8.4936 14.1137C8.40807 16.5688 9.72966 18.8579 11.8986 20.0114C9.17585 20.7734 6.84907 22.5508 5.3977 24.9773C-1.89587 17.6424 1.48585 5.16264 11.4848 2.51364C12.6045 2.21701 13.7578 2.06639 14.9161 2.06555C15.6668 2.06563 16.4162 2.12767 17.1566 2.25104C17.6009 2.32115 17.9544 1.88409 17.793 1.4643C17.7195 1.27307 17.5512 1.13432 17.3494 1.09866C6.2632 -0.77449 -2.69343 10.056 1.22749 20.5935C5.14842 31.131 19.0062 33.4725 26.1715 24.8081C28.3364 22.1903 29.5211 18.8997 29.5217 15.5027C29.5213 14.6874 29.4539 13.8736 29.3201 13.0694C29.2673 12.7499 28.9646 12.5343 28.6454 12.5888ZM9.65814 14.3342C9.65814 10.2866 14.0398 7.75684 17.5451 9.78065C21.0505 11.8045 21.0505 16.864 17.5451 18.8878C16.7459 19.3492 15.839 19.5922 14.9161 19.5922C12.0121 19.5923 9.65814 17.2382 9.65814 14.3342ZM6.27987 25.7879C10.0554 19.1397 19.6121 19.0717 23.4818 25.6656C23.5056 25.7062 23.5292 25.7469 23.5524 25.7879C18.5617 29.9903 11.2705 29.9903 6.27987 25.7879ZM30.5251 3.0631L25.8513 7.73689C25.6231 7.96534 25.2528 7.96534 25.0246 7.73689L22.6877 5.4C22.3696 5.08181 22.5152 4.53849 22.9498 4.42203C23.1515 4.36797 23.3668 4.42565 23.5144 4.57332L25.4321 6.49687L29.6926 2.23643C30.0108 1.91825 30.5541 2.06383 30.6705 2.49848C30.7246 2.7002 30.6669 2.91543 30.5192 3.0631H30.5251Z" fill="#000D25"/>
</g>
<defs>
<clipPath id="clip0_1261_15852">
<rect width="31" height="31" fill="white"/>
</clipPath>
</defs>
</svg>
