<svg width="32" height="32" viewBox="0 0 32 32" fill="none" xmlns="http://www.w3.org/2000/svg">
<path d="M2.38281 6.59867C2.38281 7.38831 2.69649 8.14561 3.25485 8.70396C3.81321 9.26232 4.57051 9.576 5.36015 9.576C6.14978 9.576 6.90708 9.26232 7.46544 8.70396C8.0238 8.14561 8.33748 7.38831 8.33748 6.59867C8.33748 5.80903 8.0238 5.05174 7.46544 4.49338C6.90708 3.93502 6.14978 3.62134 5.36015 3.62134C4.57051 3.62134 3.81321 3.93502 3.25485 4.49338C2.69649 5.05174 2.38281 5.80903 2.38281 6.59867Z" stroke="#000D25" stroke-linecap="round" stroke-linejoin="round"/>
<path d="M10.0545 13.5253C9.75446 12.822 9.3002 12.1952 8.72529 11.6911C8.15038 11.187 7.46952 10.8186 6.73304 10.6132C5.99657 10.4077 5.22334 10.3704 4.47051 10.5041C3.71769 10.6377 3.00453 10.9389 2.38379 11.3853" stroke="#000D25" stroke-linecap="round" stroke-linejoin="round"/>
<path d="M23.6631 6.59867C23.6631 7.38831 23.9768 8.14561 24.5351 8.70396C25.0935 9.26232 25.8508 9.576 26.6404 9.576C27.4301 9.576 28.1874 9.26232 28.7457 8.70396C29.3041 8.14561 29.6178 7.38831 29.6178 6.59867C29.6178 5.80903 29.3041 5.05174 28.7457 4.49338C28.1874 3.93502 27.4301 3.62134 26.6404 3.62134C25.8508 3.62134 25.0935 3.93502 24.5351 4.49338C23.9768 5.05174 23.6631 5.80903 23.6631 6.59867Z" stroke="#000D25" stroke-linecap="round" stroke-linejoin="round"/>
<path d="M21.9453 13.5253C22.2453 12.822 22.6996 12.1952 23.2745 11.6911C23.8494 11.187 24.5303 10.8186 25.2667 10.6132C26.0032 10.4077 26.7764 10.3704 27.5293 10.5041C28.2821 10.6377 28.9952 10.9389 29.616 11.3853" stroke="#000D25" stroke-linecap="round" stroke-linejoin="round"/>
<path d="M11.4521 5.21475C11.4521 5.812 11.5698 6.4034 11.7983 6.95519C12.0269 7.50698 12.3619 8.00835 12.7842 8.43067C13.2065 8.85299 13.7079 9.18799 14.2597 9.41655C14.8115 9.64511 15.4029 9.76275 16.0001 9.76275C16.5974 9.76275 17.1888 9.64511 17.7406 9.41655C18.2924 9.18799 18.7938 8.85299 19.2161 8.43067C19.6384 8.00835 19.9734 7.50698 20.202 6.95519C20.4305 6.4034 20.5481 5.812 20.5481 5.21475C20.5481 4.00854 20.069 2.85174 19.2161 1.99883C18.3632 1.14591 17.2064 0.666748 16.0001 0.666748C14.7939 0.666748 13.6371 1.14591 12.7842 1.99883C11.9313 2.85174 11.4521 4.00854 11.4521 5.21475Z" stroke="#000D25" stroke-linecap="round" stroke-linejoin="round"/>
<path d="M23.8671 15.2639C22.87 14.169 21.6552 13.2943 20.3006 12.6958C18.946 12.0972 17.4814 11.7881 16.0005 11.7881C14.5195 11.7881 13.0549 12.0972 11.7003 12.6958C10.3457 13.2943 9.13094 14.169 8.13379 15.2639" stroke="#000D25" stroke-linecap="round" stroke-linejoin="round"/>
<path d="M21.3907 18.5334C21.3907 19.9631 20.8228 21.3343 19.8118 22.3452C18.8009 23.3562 17.4297 23.9241 16 23.9241C14.5703 23.9241 13.1992 23.3562 12.1883 22.3452C11.1773 21.3343 10.6094 19.9631 10.6094 18.5334" stroke="#000D25" stroke-linecap="round" stroke-linejoin="round"/>
<path d="M28.8002 18.5239V20.5519L26.4882 21.0133C26.2208 22.1372 25.7728 23.2103 25.1615 24.1906L26.4829 26.1573L23.6255 29.0146L21.6575 27.6946C20.6776 28.31 19.6033 28.7605 18.4775 29.0279L18.0215 31.3333H13.9789L13.5202 29.0293C12.394 28.7618 11.3192 28.3114 10.3389 27.6959L8.3722 29.0159L5.51486 26.1573L6.83486 24.1906C6.22128 23.2107 5.77097 22.1376 5.50153 21.0133L3.2002 20.5519V18.5239" stroke="#000D25" stroke-linecap="round" stroke-linejoin="round"/>
<path d="M12.6191 2.17993C14.7805 4.16247 17.6157 5.24755 20.5485 5.2146" stroke="#000D25" stroke-linecap="round" stroke-linejoin="round"/>
<path d="M2.7334 5.2146C4.41718 6.24404 6.36023 6.77051 8.3334 6.73193" stroke="#000D25" stroke-linecap="round" stroke-linejoin="round"/>
<path d="M24.0117 5.2146C25.6956 6.2439 27.6386 6.77036 29.6117 6.73193" stroke="#000D25" stroke-linecap="round" stroke-linejoin="round"/>
</svg>
