<svg width="32" height="32" viewBox="0 0 32 32" fill="none" xmlns="http://www.w3.org/2000/svg">
<path d="M1.94434 16H10.2499" stroke="#000D25"/>
<path d="M21.75 16H30.0556" stroke="#000D25"/>
<path d="M13.4443 15.9999C13.4443 16.6777 13.7136 17.3277 14.1928 17.8069C14.6721 18.2862 15.3221 18.5554 15.9999 18.5554C16.6777 18.5554 17.3277 18.2862 17.8069 17.8069C18.2862 17.3277 18.5554 16.6777 18.5554 15.9999C18.5554 15.3221 18.2862 14.6721 17.8069 14.1928C17.3277 13.7136 16.6777 13.4443 15.9999 13.4443C15.3221 13.4443 14.6721 13.7136 14.1928 14.1928C13.7136 14.6721 13.4443 15.3221 13.4443 15.9999Z" stroke="#000D25"/>
<path d="M11.5273 5.77783H30.0551" stroke="#000D25"/>
<path d="M3.22168 5.77772C3.22168 6.4555 3.49092 7.10551 3.97018 7.58477C4.44944 8.06403 5.09946 8.33328 5.77724 8.33328C6.45501 8.33328 7.10503 8.06403 7.58429 7.58477C8.06355 7.10551 8.33279 6.4555 8.33279 5.77772C8.33279 5.09995 8.06355 4.44993 7.58429 3.97067C7.10503 3.49141 6.45501 3.22217 5.77724 3.22217C5.09946 3.22217 4.44944 3.49141 3.97018 3.97067C3.49092 4.44993 3.22168 5.09995 3.22168 5.77772Z" stroke="#000D25"/>
<path d="M1.94434 26.2222H20.4721" stroke="#000D25"/>
<path d="M23.667 26.2221C23.667 26.5577 23.7331 26.89 23.8615 27.2C23.99 27.5101 24.1782 27.7918 24.4155 28.0291C24.6528 28.2664 24.9345 28.4547 25.2446 28.5831C25.5546 28.7115 25.8869 28.7776 26.2225 28.7776C26.5581 28.7776 26.8905 28.7115 27.2005 28.5831C27.5106 28.4547 27.7923 28.2664 28.0296 28.0291C28.2669 27.7918 28.4551 27.5101 28.5836 27.2C28.712 26.89 28.7781 26.5577 28.7781 26.2221C28.7781 25.8865 28.712 25.5541 28.5836 25.2441C28.4551 24.934 28.2669 24.6523 28.0296 24.415C27.7923 24.1777 27.5106 23.9895 27.2005 23.861C26.8905 23.7326 26.5581 23.6665 26.2225 23.6665C25.8869 23.6665 25.5546 23.7326 25.2446 23.861C24.9345 23.9895 24.6528 24.1777 24.4155 24.415C24.1782 24.6523 23.99 24.934 23.8615 25.2441C23.7331 25.5541 23.667 25.8865 23.667 26.2221Z" stroke="#000D25"/>
</svg>
