<svg width="32" height="32" viewBox="0 0 32 32" fill="none" xmlns="http://www.w3.org/2000/svg">
<path d="M1.04102 13.3037C1.20408 13.3305 1.31494 13.4849 1.28809 13.6484V13.6494C1.16242 14.4265 1.0989 15.2128 1.09961 16C1.10759 24.2369 7.79153 30.9082 16.0283 30.9004C21.0259 30.8956 25.6301 28.3736 28.377 24.2783L28.8994 23.5H23.2002C23.0347 23.5 22.9006 23.3656 22.9004 23.2002C22.9004 23.0346 23.0346 22.8994 23.2002 22.8994H29.6006C29.7658 22.8994 29.9003 23.0336 29.9004 23.1992V29.6006C29.9004 29.7649 29.7658 29.9003 29.5996 29.9004C29.4345 29.9005 29.3 29.7663 29.2998 29.6006V24.1055L28.4004 25.3018C25.4941 29.1654 20.9218 31.501 16 31.499C7.5773 31.4888 0.727234 24.7703 0.505859 16.3984L0.5 15.999C0.499645 15.1788 0.565939 14.3595 0.697266 13.5498L0.696289 13.5488C0.724009 13.3866 0.878351 13.277 1.04102 13.3037ZM16 11.6992C18.3007 11.6992 20.1788 13.5062 20.2939 15.7783L20.2998 16C20.2967 18.3737 18.3727 20.2962 15.999 20.2988C13.6247 20.2983 11.7004 18.3745 11.7002 16C11.7002 13.625 13.6251 11.6992 16 11.6992ZM16 12.2998C13.9565 12.2998 12.2998 13.9565 12.2998 16C12.3 18.0433 13.9566 19.6992 16 19.6992C18.0434 19.6992 19.7 18.0433 19.7002 16V15.999C19.6976 13.9571 18.0429 12.3026 16.001 12.2998H16ZM3.59961 6.7041C8.12729 0.664982 16.4974 -1.33299 23.3428 2.35352C28.3632 5.05727 31.4955 10.2977 31.5 16C31.5003 16.82 31.435 17.6389 31.3037 18.4482C31.2801 18.5928 31.1551 18.6989 31.0088 18.6992H31.0078C30.9916 18.6993 30.9766 18.6985 30.9639 18.6963L30.958 18.6953L30.8994 18.6797C30.7886 18.6375 30.7129 18.5324 30.708 18.4141L30.7119 18.3535L30.7129 18.3496C30.8385 17.5725 30.9011 16.7863 30.9004 15.999C30.8924 7.7621 24.2084 1.09172 15.9717 1.09961C10.9741 1.10436 6.3699 3.62547 3.62305 7.7207L3.10059 8.49902H8.7998C8.96544 8.49902 9.09961 8.63413 9.09961 8.7998C9.09936 8.96527 8.96529 9.09961 8.7998 9.09961H2.39941C2.23418 9.09958 2.09972 8.9652 2.09961 8.7998V2.39941C2.09961 2.23374 2.23475 2.09961 2.40039 2.09961C2.56585 2.09982 2.7002 2.23387 2.7002 2.39941V7.9043L3.59961 6.7041ZM30.7148 18.3359C30.7146 18.3375 30.7138 18.3428 30.7129 18.3486H30.7119L30.7129 18.3447L30.7148 18.3359Z" fill="black" stroke="#000D25"/>
</svg>
